<svg width="218" height="250" viewBox="0 0 218 250" fill="none" xmlns="http://www.w3.org/2000/svg">
<g clip-path="url(#clip0_2001_10)">
<path d="M181.216 249.63V217.033H216.04V225.135H192.967V229.352H212.866V237.027H192.967V241.528H216.419V249.63H181.216Z" fill="black"/>
<path d="M143.97 249.63V217.033H155.673V240.676H176.804V249.63H143.97Z" fill="black"/>
<path d="M114.513 250.199C107.912 250.199 102.953 248.809 99.636 246.029C96.3195 243.25 94.6612 239.017 94.6612 233.332C94.6612 229.605 95.5298 226.493 97.2671 223.998C99.0359 221.503 101.579 219.623 104.895 218.36C108.212 217.096 112.207 216.465 116.882 216.465C119.662 216.465 122.268 216.733 124.7 217.27C127.163 217.775 129.327 218.549 131.191 219.592C133.086 220.602 134.555 221.882 135.597 223.429C136.671 224.977 137.208 226.778 137.208 228.831H125.837C125.837 228.167 125.616 227.567 125.174 227.03C124.731 226.493 124.115 226.051 123.326 225.704C122.536 225.325 121.636 225.04 120.625 224.851C119.614 224.661 118.54 224.567 117.403 224.567C115.603 224.567 114.024 224.756 112.665 225.135C111.339 225.483 110.217 226.019 109.301 226.746C108.417 227.441 107.754 228.294 107.311 229.304C106.869 230.315 106.648 231.468 106.648 232.763V233.9C106.648 235.764 107.011 237.312 107.738 238.543C108.496 239.744 109.617 240.644 111.102 241.244C112.586 241.813 114.45 242.097 116.693 242.097C118.304 242.097 119.804 241.955 121.194 241.67C122.583 241.386 123.689 240.96 124.51 240.391C125.363 239.791 125.789 239.08 125.789 238.259V238.07H115.887V231.437H137.255V249.63H130.622L129.58 246.029C128.316 246.945 126.927 247.719 125.41 248.351C123.894 248.983 122.236 249.441 120.436 249.725C118.635 250.041 116.661 250.199 114.513 250.199Z" fill="black"/>
<path d="M48.3319 249.63V217.033H58.5185L74.6275 230.631C74.817 230.789 75.0855 231.026 75.4329 231.342C75.7804 231.658 76.1436 231.989 76.5227 232.337C76.9017 232.684 77.2492 233 77.565 233.284H78.0388C78.0388 232.842 78.0388 232.258 78.0388 231.531C78.0388 230.773 78.0388 230.047 78.0388 229.352V217.033H89.0308V249.63H78.939L63.6355 236.79C62.9721 236.253 62.2615 235.653 61.5034 234.99C60.7769 234.327 60.1926 233.79 59.7503 233.379H59.3239C59.3239 233.821 59.3239 234.453 59.3239 235.274C59.3239 236.064 59.3239 236.869 59.3239 237.691V249.63H48.3319Z" fill="black"/>
<path d="M0 249.63L15.7773 217.033H28.6646L44.4419 249.63H31.8864L29.9438 245.319H13.9769L12.0818 249.63H0ZM17.5304 237.217H26.3903L24.1161 231.721C24.0214 231.468 23.895 231.136 23.7371 230.726C23.5792 230.284 23.4054 229.794 23.2159 229.257C23.0264 228.72 22.8369 228.183 22.6474 227.646C22.4894 227.109 22.3315 226.62 22.1736 226.177H21.8419C21.6524 226.714 21.4313 227.33 21.1786 228.025C20.9259 228.72 20.6732 229.399 20.4205 230.063C20.1994 230.726 19.9941 231.279 19.8046 231.721L17.5304 237.217Z" fill="black"/>
<path d="M103.3 115.091L98.7969 119.274C96.9934 121.148 94.2659 123.687 90.619 126.896L79.0699 137.058C75.1745 140.557 71.5267 143.766 68.1277 146.685L68.8198 148.339C72.7351 147.978 77.1871 147.574 82.1762 147.13C87.3885 146.776 92.4131 146.411 97.2455 146.033C102.3 145.746 106.471 145.556 109.758 145.461L115.894 145.178L138.594 199.407L25.6874 199.631L0.60335 139.706L79.6967 58.7044L103.3 115.091ZM177.533 199.328L153.61 199.377L130.641 144.505L154.131 143.428L177.533 199.328ZM216.289 199.256L192.549 199.299L168.879 142.752L192.19 141.69L216.289 199.256ZM131.368 89.0479L114.126 105.05L90.2161 47.9308L106.973 30.765L131.368 89.0479ZM159.306 63.1261L142.195 79.0033L117.493 19.9914L134.123 2.96579L159.306 63.1261Z" fill="black"/>
</g>
<defs>
<clipPath id="clip0_2001_10">
<rect width="218" height="249.675" fill="white"/>
</clipPath>
</defs>
</svg>
