<svg width="1599" height="277" viewBox="0 0 1599 277" fill="none" xmlns="http://www.w3.org/2000/svg">
<path d="M278.882 223.677L357.214 61.8385H421.197L499.529 223.677H437.192L427.548 202.271H348.275L338.866 223.677H278.882ZM365.917 162.047H409.906L398.614 134.76C398.144 133.506 397.517 131.859 396.733 129.82C395.949 127.625 395.086 125.194 394.145 122.528C393.204 119.862 392.263 117.196 391.322 114.53C390.538 111.864 389.754 109.434 388.97 107.238H387.323C386.382 109.904 385.285 112.962 384.03 116.412C382.776 119.862 381.521 123.234 380.266 126.527C379.169 129.82 378.149 132.565 377.208 134.76L365.917 162.047ZM577.649 223.677V61.8385H628.224L708.202 129.35C709.143 130.134 710.476 131.31 712.201 132.878C713.926 134.446 715.73 136.093 717.612 137.818C719.494 139.543 721.219 141.111 722.787 142.523H725.139C725.139 140.327 725.139 137.426 725.139 133.819C725.139 130.056 725.139 126.449 725.139 122.999V61.8385H779.713V223.677H729.609L653.629 159.93C650.336 157.264 646.807 154.284 643.043 150.991C639.437 147.698 636.535 145.032 634.34 142.993H632.223C632.223 145.189 632.223 148.325 632.223 152.402C632.223 156.323 632.223 160.322 632.223 164.399V223.677H577.649ZM965.036 226.5C932.261 226.5 907.64 219.6 891.174 205.8C874.707 192 866.474 170.986 866.474 142.758C866.474 124.253 870.787 108.806 879.412 96.4175C888.194 84.0286 900.818 74.6978 917.284 68.425C933.75 62.1521 953.588 59.0157 976.798 59.0157C990.598 59.0157 1003.54 60.3487 1015.61 63.0147C1027.84 65.5238 1038.59 69.3659 1047.84 74.541C1057.25 79.5592 1064.54 85.9105 1069.71 93.5947C1075.05 101.279 1077.71 110.218 1077.71 120.411H1021.26C1021.26 117.118 1020.16 114.138 1017.96 111.472C1015.77 108.806 1012.71 106.611 1008.79 104.886C1004.87 103.004 1000.4 101.593 995.381 100.652C990.363 99.7107 985.031 99.2402 979.385 99.2402C970.447 99.2402 962.605 100.181 955.862 102.063C949.276 103.788 943.709 106.454 939.161 110.061C934.77 113.511 931.477 117.745 929.281 122.763C927.086 127.782 925.988 133.506 925.988 139.935V145.581C925.988 154.833 927.791 162.517 931.398 168.633C935.162 174.593 940.729 179.062 948.1 182.042C955.47 184.864 964.723 186.276 975.857 186.276C983.855 186.276 991.304 185.57 998.204 184.159C1005.1 182.747 1010.59 180.63 1014.67 177.807C1018.9 174.828 1021.02 171.299 1021.02 167.222V166.281H971.858V133.349H1077.95V223.677H1045.01L1039.84 205.8C1033.57 210.348 1026.67 214.19 1019.14 217.326C1011.61 220.463 1003.38 222.737 994.44 224.148C985.501 225.716 975.7 226.5 965.036 226.5ZM1170.09 223.677V61.8385H1228.19V179.219H1333.11V223.677H1170.09ZM1413.82 223.677V61.8385H1586.72V102.063H1472.16V122.999H1570.96V161.106H1472.16V183.453H1588.6V223.677H1413.82Z" fill="black"/>
<path d="M120.069 139.313L115.566 143.496C113.763 145.37 111.035 147.909 107.388 151.118L95.8391 161.28C91.9438 164.779 88.2959 167.989 84.897 170.908L85.589 172.561C89.5043 172.2 93.9564 171.797 98.9454 171.352C104.158 170.998 109.182 170.633 114.015 170.255C119.07 169.968 123.241 169.778 126.528 169.683L132.663 169.4L155.363 223.629L42.4567 223.853L17.3726 163.928L96.4659 82.9266L120.069 139.313ZM194.302 223.55L170.38 223.599L147.41 168.727L170.9 167.65L194.302 223.55ZM233.058 223.478L209.319 223.521L185.649 166.974L208.959 165.912L233.058 223.478ZM148.137 113.27L130.895 129.272L106.985 72.1531L123.743 54.9872L148.137 113.27ZM176.075 87.3483L158.964 103.226L134.262 44.2136L150.893 27.188L176.075 87.3483Z" fill="black"/>
</svg>
